<?xml version="1.0" encoding="utf-8"?>
<!-- Generator: Adobe Illustrator 20.1.0, SVG Export Plug-In . SVG Version: 6.00 Build 0)  -->
<!DOCTYPE svg PUBLIC "-//W3C//DTD SVG 1.1//EN" "http://www.w3.org/Graphics/SVG/1.1/DTD/svg11.dtd" [
	<!ENTITY st0 "fill:#A56927;">
]>
<svg version="1.1" id="Layer_1" xmlns="http://www.w3.org/2000/svg" xmlns:xlink="http://www.w3.org/1999/xlink" x="0px" y="0px"
	 viewBox="0 0 360 36" style="enable-background:new 0 0 360 36;" xml:space="preserve">
<path style="&st0;" d="M109.9,28.2c-5.2,0-6.1-4.3-6.1-10.2c0-5.9,0.9-10.2,6.1-10.2c5.2,0,6.1,4.2,6.1,10.2
	C116,23.9,115.1,28.1,109.9,28.2 M109.9,29.5c8,0,11.3-3.7,11.3-11.5c0-7.8-3.3-11.5-11.3-11.5c-8,0-11.3,3.7-11.3,11.5
	C98.7,25.8,101.9,29.5,109.9,29.5 M87.8,17.5c3.3-0.2,5.6-2,5.6-5.5c0-5.4-4.1-5-8.2-5.1c-1.5,0-3.1,0-4.7,0.1c-2.2,0-4,0-5.5-0.1
	v1.3c3.3,0,2.7,0.6,2.8,2.6v14.5c0,1.3,0.6,2.9-2.8,2.6v1.3c1.5,0,3.3,0,5.2-0.1c1.8,0,3.7,0,5.4,0.1v-1.3c-3.4,0.3-3-1-3-2.6v-7.5
	l5,7.4c0.8,1.3,1.5,2.6,2.2,4c1.1,0,2.1,0,3-0.1c1.4,0,2.8,0,4.4,0.1v-1.3c-2.2-0.2-2.6-0.6-3.5-1.9L87.8,17.5z M82.6,8.4
	c0.6,0,1.2-0.1,1.8-0.1c2.6,0,4.1,1.4,4.1,4c0,3.8-2.5,4.9-5.9,4.7V8.4z M52.5,22c0,6.5,3.6,7.5,9.7,7.5c5,0,8.6-1.9,8.6-7.3V10.8
	c0-2.2,0-2.6,2.9-2.6V6.9c-1.3,0-2.6,0-3.9,0.1c-1.4,0-2.7,0-4-0.1v1.3c3.1,0,3.3,0.2,3.3,2.6V22c0,4-2.4,6.2-6.4,6.2
	c-4.1,0-5.5-2.1-5.4-6V10.8c0-2-0.3-2.6,2.8-2.6V6.9c-1.5,0-3.4,0-5.2,0.1c-1.8,0-3.7,0-5.2-0.1v1.3c3.3,0,2.8,0.6,2.8,2.6V22z
	 M32.7,25.3c-0.1,1.9,0.5,2.6-2.7,2.6v1.3c1.4,0,3.2-0.1,5-0.1c4.2,0,8.4,0,12.6,0.1v-6.2h-2.4c-0.4,3.6-0.5,4.7-4.3,4.7h-3.6V18h2
	c2,0.1,2.3,1.4,2.4,3.1h1.8c0-1.3,0-2.5-0.1-3.8c0-1.3,0-2.5,0.1-3.8h-1.8c-0.1,1.8-0.5,3.1-2.4,3.1h-2V8.4h3.2
	c4.4,0,4.4,0.4,4.7,3.8h2.4V6.9C43.5,6.9,39.2,7,35,7c-1.8,0-3.7,0-5-0.1v1.3c3.1,0,2.6,0.7,2.7,2.6V25.3z M7.7,25.3
	c0,2.2-0.1,2.6-2.7,2.6v1.3c0.8,0,2.1,0,3.4-0.1c1.3,0,2.6,0,4.1,0.1v-1.3c-3.1,0-3.1-0.3-3.1-2.6V11.9l12.9,17.3
	c0.6,0,1.2,0,1.8-0.1c0.6,0,1.3,0,1.9,0.1V10.8c0-2.2,0-2.6,2.9-2.6V6.9c-1.3,0-2.6,0-3.9,0.1c-1.4,0-2.7,0-3.8-0.1v1.3
	c2.8,0,3,0.3,3,2.6v13L11.5,6.9c-1,0-2,0.1-3.1,0.1c-1.2,0-2.3,0-3.4-0.1v1.3c3.1,0,2.6,0.7,2.7,2.6V25.3z M351.8,10.8
	c0.1-2.1-0.5-2.6,3.2-2.6V6.9c-1.8,0-3.7,0-5.5,0.1c-1.8,0-3.7,0-5.5-0.1v1.3c3.6,0,3.1,0.5,3.2,2.6v14.5c-0.1,2.1,0.5,2.6-3.2,2.6
	v1.3c7.4,0,9.2,0,11,0v-1.3c-3.6,0-3.1-0.5-3.2-2.6V10.8z M335.3,25.3c-0.1,2,0.5,2.6-2.8,2.6v1.3c1.5,0,3.4,0,5.2-0.1
	c1.8,0,3.7,0,5.2,0.1v-1.3c-3.1,0-2.8-0.5-2.8-2.6V10.8c0.1-2-0.5-2.6,2.8-2.6V6.9c-1.3,0-2.5,0-3.7,0.1c-1.1,0-2.2,0-3.4-0.1
	l-7.4,15.7l-7.7-15.7c-1.2,0-2.5,0-3.7,0.1c-1.2,0-2.3,0-3.4-0.1v1.3c3.1,0,2.6,0.7,2.7,2.6v14.5c0,2.2-0.1,2.6-2.7,2.6v1.3
	c0.8,0,2.1,0,3.4-0.1c1.3,0,2.6,0,4,0.1v-1.3c-3,0-3-0.4-3-2.6V11.5h0.1l8.2,17.7c0.1,0.3,0.5,0.3,0.6,0l8.3-17.7h0.1V25.3z
	 M300.2,28.2c-5.2,0-6.1-4.3-6.1-10.2c0-5.9,0.9-10.2,6.1-10.2c5.2,0,6.1,4.2,6.1,10.2C306.3,23.9,305.4,28.1,300.2,28.2
	 M300.2,29.5c8,0,11.3-3.7,11.3-11.5c0-7.8-3.3-11.5-11.3-11.5c-8,0-11.3,3.7-11.3,11.5C289,25.8,292.2,29.5,300.2,29.5 M266,25.3
	c0,2.2-0.1,2.6-2.7,2.6v1.3c0.8,0,2.1,0,3.4-0.1c1.3,0,2.6,0,4.1,0.1v-1.3c-3.1,0-3.1-0.3-3.1-2.6V11.9l12.9,17.3
	c0.6,0,1.2,0,1.8-0.1c0.6,0,1.3,0,1.9,0.1V10.8c0-2.2,0-2.6,2.9-2.6V6.9c-1.3,0-2.6,0-3.9,0.1c-1.4,0-2.7,0-3.8-0.1v1.3
	c2.8,0,3,0.3,3,2.6v13L269.9,6.9c-1,0-2,0.1-3.1,0.1c-1.2,0-2.3,0-3.4-0.1v1.3c3.1,0,2.6,0.7,2.7,2.6V25.3z M250,28.2
	c-5.2,0-6.1-4.3-6.1-10.2c0-5.9,0.9-10.2,6.1-10.2c5.2,0,6.1,4.2,6.1,10.2C256.1,23.9,255.2,28.1,250,28.2 M250,29.5
	c8,0,11.3-3.7,11.3-11.5c0-7.8-3.3-11.5-11.3-11.5c-8,0-11.3,3.7-11.3,11.5C238.8,25.8,242,29.5,250,29.5 M228,17.5
	c3.3-0.2,5.6-2,5.6-5.5c0-5.4-4.1-5-8.2-5.1c-1.5,0-3.1,0-4.7,0.1c-2.2,0-4,0-5.5-0.1v1.3c3.3,0,2.7,0.6,2.8,2.6v14.5
	c0,1.3,0.6,2.9-2.8,2.6v1.3c1.5,0,3.3,0,5.2-0.1c1.8,0,3.7,0,5.4,0.1v-1.3c-3.4,0.3-3-1-3-2.6v-7.5l5,7.4c0.8,1.3,1.5,2.6,2.2,4
	c1.1,0,2.1,0,3-0.1c1.4,0,2.8,0,4.4,0.1v-1.3c-2.2-0.2-2.6-0.6-3.5-1.9L228,17.5z M222.7,8.4c0.6,0,1.2-0.1,1.8-0.1
	c2.6,0,4.1,1.4,4.1,4c0,3.8-2.5,4.9-5.9,4.7V8.4z M197.8,29.3c2,0,3.8,0,5.7-0.1c1.8,0,3.7,0,5.7,0.1v-1.3c-3.6,0-3.3-0.3-3.3-2.6
	v-17h1.4c3.6,0,3.6,0.7,4.1,4.4h2.4V7h-20.4v5.8h2.4c0.5-3.6,0.5-4.4,4.1-4.4h1.4v17c0,2.3,0.3,2.6-3.3,2.6V29.3z M190.1,7.5
	c-2.3-0.7-4.8-1.1-6.7-1.1c-4.2,0-8.8,1.7-8.8,6.5c0,5.8,5.4,6,9.6,7.5c1.6,0.7,2.4,1.8,2.4,3.5c0,2.6-2,4.2-4.5,4.2
	c-3.9,0-4.7-1.9-5-5.4h-2.5v5.6c2.4,0.7,4.6,1.1,7.2,1.1c4.7,0,9.4-1.7,9.4-7.2c0-4.1-2.2-5.2-5.7-6.3c-2.4-0.8-6.4-1-6.4-4.4
	c0-2.6,1.8-3.8,4.3-3.8c3.2,0,4.1,1.9,4.3,4.7h2.3V7.5z M156.5,18.7l2.7-7.8l2.8,7.8H156.5z M162.6,20.2l1.6,4.9
	c0.1,0.4,0.5,1.2,0.4,1.7c-0.1,1.1-2.1,1.1-2.8,1.2v1.3c1.6,0,3.4,0,5.3-0.1c1.8,0,3.7,0,5.4,0.1v-1.3c-2.6,0-2.9-1.7-3.7-4l-6-17
	c-0.6,0-1.1,0.1-1.7,0.1s-1.2,0-1.7-0.1c-1.7,5.2-3.7,10-5.6,15.1c-0.9,2.6-1.8,4.6-2.4,5.2c-0.4,0.4-1,0.8-2.7,0.8v1.3
	c1.4,0,2.7,0,4-0.1c1.5,0,3,0,4.4,0.1v-1.3c-0.9,0-2.9-0.2-2.8-1.4c0-0.3,0.1-0.6,0.3-1.4l1.5-5H162.6z M136.2,20.4
	c4.4-0.2,3.8,0.5,3.9,2.6c0,3.2,0,3.5-0.2,3.8c-0.8,1-2.7,1.4-3.9,1.4c-5.5,0-6.4-5.3-6.4-9.7c0-5,0.7-10.7,6.8-10.7
	c4.6,0,5,1.1,5.6,5.1h2.3V7.4c-2.8-0.6-5-0.9-7.9-0.9c-8.5,0-11.9,3.6-11.9,12c0,7.3,3.5,11.1,10.9,11.1c1,0,2,0,3-0.2
	c2.2-0.4,4.3-1.3,6.5-1.2V23c0-1-0.5-2.7,2.4-2.6V19c-1,0-2.9,0-4.7,0.1c-1.8,0-3.7,0-6.2-0.1V20.4z"/>
</svg>
