<?xml version="1.0" encoding="utf-8"?>
<!-- Generator: Adobe Illustrator 19.2.0, SVG Export Plug-In . SVG Version: 6.00 Build 0)  -->
<!DOCTYPE svg PUBLIC "-//W3C//DTD SVG 1.1//EN" "http://www.w3.org/Graphics/SVG/1.1/DTD/svg11.dtd">
<svg version="1.1" id="Layer_1" xmlns="http://www.w3.org/2000/svg" xmlns:xlink="http://www.w3.org/1999/xlink" x="0px" y="0px"
	 viewBox="0 0 200 40" style="enable-background:new 0 0 200 40;" xml:space="preserve">
<style type="text/css">
	.st0{fill:#464545;}
</style>
<g>
	<path class="st0" d="M187.6,2.4c1.2-0.3,3.1-0.3,4.4-0.1c1.9,0.3,4.1,1.8,4.1,5.2c0,3.5-2.8,5.9-8.5,5.2V2.4z M187.6,14
		c5.2,0.5,12.2-0.4,12.4-6.8c0.2-5.9-5.7-6.8-11.9-6.4C184.8,1,181.7,1,180.8,1v0.7l3.1,0.9v20.7c0,0-3.4,1-3.4,1v0.7h11.3v-0.8
		c0,0-4.2-1.1-4.2-1.1V14z M156.7,25.1h18.6l0.3-5.7h-0.8l-1.6,3.9l-9.6,0.1V13.1h7.9l0.9,2.4h0.7c0.1-0.9,0.2-5.4,0.2-6.4l-0.7-0.1
		l-1.1,2.4h-7.9V2.6h9.1l1.3,3.3l0.8-0.1l0-4.7h-17.8v0.7l3.3,0.9v20.7l-3.4,1.1V25.1z M151.7,5.8l0.9,0l-0.1-5
		c-7.6,0.1-13.8,0.4-22.3-0.1c-0.1,2.5-0.3,4.4-0.4,4.8l0.9,0.1l1.4-3.1c3.5-0.1,6.1-0.1,7.2-0.1v20.8l-3.4,1.1v0.7h10.5v-0.7
		l-3.4-1.1V2.5c2.4-0.1,4.5-0.1,6.9,0l0.6,0L151.7,5.8z M116.6,25.8c5.5,0.1,9-2.8,9.1-7.2c0.1-3-1.1-4.8-2.7-6c-1.4-1-3-1.6-4.4-2
		c-1.3-0.4-2.6-0.6-3.8-1.2c-1.2-0.6-2-1.5-2.1-3.1c-0.1-2.7,2.3-4.1,4.7-4.3c2.3-0.1,3.5,0.7,5.2,2l0.8,2.8l0.8,0.1l0.3-4.8
		c-1.1-0.7-4.3-1.5-6.8-1.4c-4.9,0.2-8.1,2-8.5,5.9c-0.2,2.6,1.1,4.2,2.5,5.2c0.9,0.6,1.7,0.9,2.5,1.2c0.8,0.2,1.7,0.4,2.7,0.7
		c2.8,0.8,5.7,2.4,5.4,5.7c-0.2,3.2-2.3,5-5.1,5c-2.8,0-4.7-1.4-5.8-2.7l-1.1-3.8l-0.9-0.1l-0.4,5.8
		C111.6,25.2,113.6,25.8,116.6,25.8 M103.3,5.8l0.9,0l-0.1-5C96.4,1,90.3,1.2,81.8,0.7c-0.1,2.5-0.3,4.4-0.4,4.8l0.9,0.1l1.4-3.1
		c3.5-0.1,6.1-0.1,7.2-0.1v20.8l-3.4,1.1v0.7H98v-0.7l-3.4-1.1V2.5c2.4-0.1,4.5-0.1,6.9,0l0.6,0L103.3,5.8z M67.6,11.7
		c2.8-3.8,5.4-7.4,6.7-9.1l2.8-1V1h-6.7v0.7c0.4,0,0.8,0.2,1.8,0.6c-1.1,1.5-3.3,4.5-5.7,7.8c-1.7-2.5-3.5-5.2-5.2-7.8l1.9-0.7V1
		h-8.9v0.7l3.2,1c1.9,2.7,4.5,6.6,6.9,10.3c-3.5,4.6-6.9,9.1-7.9,10.3L53,24.4v0.7h7.8v-0.7l-1.9-0.6c0.9-1.3,3.6-5.1,6.6-9.2
		c2.6,3.9,4.9,7.4,5.8,9l-2.1,0.8v0.7H79v-0.7l-3.8-1.2C73.2,20,70.5,16,67.6,11.7 M29.7,25.1h18.6l0.3-5.7h-0.9l-1.6,3.9l-9.6,0.1
		V13.1h7.9l0.9,2.4h0.7c0.1-0.9,0.2-5.4,0.2-6.4l-0.7-0.1l-1.1,2.4h-7.9V2.6h9.1L47,5.8l0.8-0.1l0-4.7H29.9v0.7l3.3,0.9v20.7
		l-3.4,1.1V25.1z M22.5,2.4l2.5-0.8V1h-6.8v0.7l2.3,0.8l0.1,17.5L7.4,1h-7v0.7l2.8,1v20.8l-3.1,1v0.7h8.2v-0.7l-3-1L5.1,4l15,21.6
		h2.3V2.4z"/>
	<path class="st0" d="M198,31.4l1-0.4v-0.2h-2.6v0.3l0.8,0.2l-2.7,6.3l-2.7-6.3l0.8-0.3v-0.2h-3.1v0.2l1.1,0.4l3.5,7.9h0.5L198,31.4
		z M181.6,39.1h6.3l0.1-2h-0.3l-0.5,1.3l-3.3,0V35h2.7l0.3,0.8h0.3c0-0.3,0.1-1.8,0.1-2.2l-0.2,0l-0.4,0.8h-2.7v-3.1h3.1l0.4,1.1
		l0.3,0l0-1.6h-6.1v0.2l1.1,0.3v7.1l-1.2,0.4V39.1z M173.6,30.8v0.2l1.1,0.3v7.1l-1.2,0.4v0.2h6.3l0.1-2h-0.3l-0.5,1.3l-3.3,0v-7.1
		l1.1-0.3v-0.2H173.6z M168.7,39.3c1.9,0.1,3.1-1,3.1-2.5c0-1-0.4-1.6-0.9-2c-0.5-0.3-1-0.5-1.5-0.7c-0.4-0.1-0.9-0.2-1.3-0.4
		c-0.4-0.2-0.7-0.5-0.7-1.1c0-0.9,0.8-1.4,1.6-1.5c0.8,0,1.2,0.2,1.8,0.7l0.3,1l0.3,0l0.1-1.6c-0.4-0.2-1.4-0.5-2.3-0.5
		c-1.7,0.1-2.8,0.7-2.9,2c-0.1,0.9,0.4,1.4,0.9,1.8c0.3,0.2,0.6,0.3,0.9,0.4c0.3,0.1,0.6,0.2,0.9,0.3c1,0.3,1.9,0.8,1.8,2
		c-0.1,1.1-0.8,1.7-1.8,1.7c-1,0-1.6-0.5-2-0.9l-0.4-1.3l-0.3,0l-0.1,2C167,39.1,167.7,39.3,168.7,39.3 M158.5,31.4
		c3.3-0.4,4.3,1.3,4.3,3.4c0,3.4-1.9,4.1-4.3,3.6V31.4z M156.2,30.8v0.2l1.1,0.3v7l-1.2,0.4v0.2c2.3,0,2.8,0,3.3,0
		c1.8,0.1,4.8-0.5,4.8-4.3c0-3.3-2.6-4-4.6-4C159.1,30.8,158.3,30.8,156.2,30.8 M157.3,31.5v7V31.5z M153.6,31.3l0.8-0.3v-0.2h-2.3
		v0.2l0.8,0.3l0.1,6l-4.5-6.5H146v0.2l0.9,0.3v7.1l-1.1,0.3v0.2h2.8v-0.2l-1-0.3l-0.1-6.6l5.1,7.4h0.8V31.3z M140.5,39.1h3.6v-0.2
		l-1.2-0.4v-7l1.1-0.3v-0.2h-3.4v0.2l1.1,0.3v7l-1.2,0.4V39.1z M136.2,34.9c0.7,0.2,1.4,0.6,1.4,1.7c0,2-1.8,2.3-3,1.9v-3.6
		C135.2,34.8,135.7,34.8,136.2,34.9 M135.5,31.3c0.7,0,1.6,0.2,1.6,1.4c0,1.8-1.5,1.8-2.5,1.7v-3C134.8,31.3,135.2,31.3,135.5,31.3
		 M132.3,38.8v0.2c1.5,0,2.6,0,3.3,0.1c1.8,0.1,3.2-0.7,3.3-2.2c0.1-1.3-0.8-2.1-2.2-2.4c1-0.3,1.6-0.9,1.6-1.9
		c0-1.4-1.2-1.9-2.6-1.9c-0.8,0-1.3,0.1-2.1,0.1c0,0-0.2,0-1.4,0v0.2l1.1,0.3v7L132.3,38.8z M126.4,31.4l1.1-0.3v-0.3h-2.7V31
		l0.8,0.3l-2.5,3.2c-0.3-0.4-1.8-2.5-2.3-3.2l0.7-0.3v-0.2h-3.3v0.2l1.1,0.4c0.5,0.6,2.3,2.9,2.9,3.7v3.3l-1.2,0.4v0.2h3.5v-0.2
		l-1.1-0.4V35C124.3,33.9,126,31.9,126.4,31.4 M114.4,34.9c0.7,0.2,1.4,0.6,1.4,1.7c0,2-1.8,2.3-3,1.9v-3.6
		C113.4,34.8,113.9,34.8,114.4,34.9 M113.8,31.3c0.7,0,1.6,0.2,1.6,1.4c0,1.8-1.5,1.8-2.5,1.7v-3C113.1,31.3,113.5,31.3,113.8,31.3
		 M110.5,38.8v0.2c1.5,0,2.6,0,3.3,0.1c1.8,0.1,3.2-0.7,3.3-2.2c0.1-1.3-0.8-2.1-2.2-2.4c1-0.3,1.6-0.9,1.6-1.9
		c0-1.4-1.2-1.9-2.6-1.9c-0.8,0-1.3,0.1-2.1,0.1c0,0-0.2,0-1.4,0v0.2l1.1,0.3v7L110.5,38.8z"/>
</g>
</svg>
